<svg width="30" height="30" viewBox="0 0 30 30" fill="none" xmlns="http://www.w3.org/2000/svg">
<path fill-rule="evenodd" clip-rule="evenodd" d="M9.48275 2.02306C8.79627 2.61211 8.57209 2.83711 8.59283 2.91638C8.60807 2.97468 9.13441 3.62771 9.76242 4.36763L10.9044 5.71289L8.65049 5.74218L6.39662 5.77148L6.14402 5.94908C5.84965 6.15603 5.56664 6.58289 5.51478 6.89812C5.4948 7.0197 5.49258 11.7598 5.50992 17.4316C5.53975 27.1817 5.54719 27.7593 5.64703 28.0216C5.70516 28.1743 5.83066 28.3648 5.926 28.445C6.31969 28.7763 6.17982 28.7695 12.635 28.7695H18.5689L21.5599 25.9509L24.5508 23.1323L24.5504 15.155C24.5503 10.266 24.528 7.04302 24.4931 6.82974C24.4256 6.41718 24.2234 6.13388 23.8424 5.91797L23.584 5.77148L18.9719 5.75513L14.3598 5.73879L12.9053 4.02662C12.1054 3.0849 11.26 2.08629 11.0267 1.80744C10.6775 1.39019 10.4872 1.21283 10.4102 1.23304C10.4048 1.23451 9.98748 1.59 9.48275 2.02306ZM7.44141 10.2686C7.44146 11.7268 7.45898 16.0642 7.48043 19.9072L7.51939 26.8945H12.5979H17.6765L17.716 25.2238C17.7609 23.3235 17.7807 23.227 18.2034 22.855C18.6738 22.4409 18.7886 22.4205 20.7861 22.3965L22.5586 22.3751V14.9961V7.61718H19.1909H15.8232L15.8741 7.74902C16.2466 8.714 16.9985 10.4282 17.2011 10.7744C17.344 11.0185 17.4609 11.2518 17.4609 11.2927C17.4609 11.4403 17.2614 11.3615 16.8523 11.0523C16.623 10.8791 15.8194 10.3461 15.0664 9.86795L13.6973 8.99853L13.1121 8.30783L12.5268 7.61718H9.98408H7.44141V10.2686ZM12.3633 14.2462C11.0767 14.3766 10.2539 15.3992 10.2539 16.8679C10.2539 18.1164 10.7399 19.0263 11.6244 19.4336C11.9508 19.5839 12.0419 19.5985 12.6573 19.599C13.3023 19.5996 13.3494 19.5911 13.7235 19.407C14.312 19.1174 14.7942 18.4931 14.9109 17.8695L14.9496 17.6627L14.4492 17.5408L13.9488 17.419L13.8607 17.722C13.8122 17.8886 13.7126 18.1136 13.6392 18.222C13.2427 18.8078 12.2206 18.8508 11.7072 18.3033C11.2378 17.8027 11.1398 16.558 11.5121 15.8233C11.7455 15.3628 12.0964 15.1685 12.6948 15.1685C13.2468 15.1685 13.5342 15.3626 13.7694 15.8943C13.837 16.047 13.9102 16.1719 13.9321 16.1719C13.954 16.1719 14.1785 16.1275 14.431 16.0732C14.877 15.9774 14.8891 15.9703 14.8545 15.8242C14.782 15.519 14.5206 15.0618 14.2804 14.8202C13.822 14.3592 13.1711 14.1644 12.3633 14.2462ZM14.7923 14.3994C15.3424 15.837 16.7283 19.3933 16.7684 19.4702C16.815 19.5596 16.8894 19.5726 17.2721 19.5581L17.7213 19.541L18.7319 16.9629C19.2877 15.5449 19.7433 14.365 19.7443 14.3408C19.7453 14.3167 19.5111 14.2969 19.2239 14.2969H18.7017L18.5303 14.751C18.4361 15.0007 18.1122 15.8701 17.8107 16.683C17.5092 17.4959 17.2573 18.155 17.251 18.1478C17.24 18.1352 16.1304 15.053 15.9543 14.5459L15.8679 14.2969H15.3105C14.8038 14.2969 14.7567 14.3062 14.7923 14.3994Z" fill="#B6C7AA"/>
</svg>
