<svg width="30" height="30" viewBox="0 0 30 30" fill="none" xmlns="http://www.w3.org/2000/svg">
<path fill-rule="evenodd" clip-rule="evenodd" d="M12.6331 0.385647C10.489 0.577244 9.11474 0.947174 7.45558 1.77936C4.24575 3.3893 1.81299 6.18967 0.680042 9.57884C-0.00291729 11.6219 -0.175565 13.9381 0.19068 16.1449C0.902011 20.4309 3.85745 24.2825 7.81683 26.0835C9.05226 26.6455 9.54857 26.7558 9.87607 26.5412C10.1448 26.3652 10.1726 26.1889 10.151 24.7951C10.1403 24.0945 10.1198 23.5098 10.1057 23.4957C10.0917 23.4816 9.96171 23.4934 9.81696 23.5219C9.40519 23.603 8.19212 23.5858 7.65892 23.4913C7.04012 23.3816 6.52133 23.1287 6.15125 22.7565C5.85527 22.4588 5.83769 22.4297 5.45334 21.6006C5.07788 20.7907 4.67558 20.2791 4.13005 19.9177C3.78081 19.6864 3.53895 19.3792 3.61327 19.2614C3.76818 19.0158 4.45351 19.0657 5.03846 19.3652C5.50966 19.6064 5.93933 20.0123 6.26805 20.5265C6.63177 21.0956 7.05917 21.5108 7.50916 21.7322C7.86215 21.9059 7.87836 21.9086 8.57911 21.9086C9.17127 21.9086 9.35413 21.8886 9.66905 21.7896C9.87718 21.7242 10.0816 21.6366 10.1233 21.5948C10.1649 21.5531 10.2154 21.4104 10.2353 21.2775C10.2974 20.8631 10.5295 20.3683 10.826 20.0177C10.9221 19.9042 10.9937 19.8042 10.9851 19.7957C10.9765 19.7871 10.7318 19.7443 10.4413 19.7007C9.39429 19.5435 8.77202 19.3651 8.02737 19.0088C7.14208 18.5853 6.43422 18.0201 6.01097 17.3989C5.57909 16.765 5.19516 15.7674 5.02061 14.8254C4.88718 14.1053 4.88539 12.4263 5.01751 11.8813C5.20574 11.1048 5.52066 10.4592 6.01408 9.83855C6.2562 9.53394 6.27294 9.49514 6.21609 9.3704C6.09356 9.10137 6.00086 8.49563 6.00086 7.96363C6.00086 7.34462 6.04761 7.04644 6.24799 6.38727L6.39001 5.91996L6.84026 5.94639C7.18582 5.96665 7.41279 6.01834 7.81683 6.16883C8.48836 6.41896 9.17943 6.75478 9.70101 7.08439L10.1114 7.34378L10.3853 7.26999C10.9335 7.12229 11.825 6.98522 12.6409 6.92316C13.8612 6.83037 15.4576 6.97159 16.5671 7.27046L16.8429 7.34473L17.1461 7.14892C17.9172 6.65093 19.0941 6.10814 19.6711 5.98439C19.8164 5.95323 20.0727 5.93491 20.2405 5.9437L20.5456 5.9597L20.6686 6.32516C20.8629 6.90206 20.9497 7.41326 20.9497 7.98053C20.9497 8.49779 20.8558 9.10405 20.7344 9.3704C20.6776 9.49514 20.6943 9.53394 20.9364 9.83855C21.6687 10.7596 21.9848 11.6405 22.0378 12.9077C22.1142 14.7371 21.6727 16.4292 20.829 17.5398C20.1714 18.4053 18.8175 19.2069 17.4904 19.5163C17.245 19.5735 16.8051 19.6563 16.5127 19.7002C16.2203 19.7441 15.9695 19.7916 15.9554 19.8057C15.9412 19.8198 16.0154 19.9198 16.1201 20.0278C16.3631 20.2785 16.5545 20.6632 16.6946 21.1823C16.7969 21.562 16.8072 21.7663 16.8305 23.9088C16.8584 26.4648 16.8576 26.4594 17.1879 26.5974C17.4496 26.7067 17.5725 26.6924 18.1441 26.4856C20.772 25.535 22.9814 23.8006 24.6452 21.3822C25.8973 19.5623 26.7211 17.2759 26.8785 15.1843C26.8975 14.931 26.9333 14.7237 26.958 14.7237C26.9826 14.7237 27.0029 14.2959 27.0029 13.7731C27.0029 13.1528 26.9846 12.8339 26.9502 12.8551C26.9183 12.8748 26.8976 12.8009 26.8976 12.6676C26.8976 12.039 26.5955 10.5512 26.2705 9.57884C24.627 4.66253 20.2114 1.04729 15.1333 0.460391C14.6123 0.400175 13.0075 0.352223 12.6331 0.385647ZM0.0221377 13.8289C0.0221377 14.3644 0.0299806 14.5835 0.0395078 14.3158C0.0490877 14.0479 0.0490877 13.6097 0.0395078 13.342C0.0299806 13.0742 0.0221377 13.2933 0.0221377 13.8289Z" fill="#B6C7AA"/>
</svg>
