<svg width="30" height="30" viewBox="0 0 30 30" fill="none" xmlns="http://www.w3.org/2000/svg">
<path fill-rule="evenodd" clip-rule="evenodd" d="M3.68118 6.53469C3.52037 6.57252 3.28447 6.72025 3.15687 6.86304L2.925 7.12259V16.022V24.9214L3.21023 25.2066C3.41878 25.4152 3.57095 25.4926 3.77648 25.4946C3.93109 25.4962 9.73461 25.4997 16.6733 25.5026C29.0339 25.5076 29.2936 25.5044 29.5085 25.3449C29.9557 25.013 29.9379 25.424 29.9161 15.9093L29.8957 7.03979L29.6781 6.82235C29.5586 6.70272 29.3132 6.57068 29.1329 6.52882C28.7225 6.4336 4.08696 6.43931 3.68118 6.53469ZM7.13226 8.62993C6.8576 8.67095 6.95802 8.76466 11.6496 12.8459L16.4478 17.0199L16.6955 16.8116C16.8317 16.697 18.9852 14.8186 21.481 12.6375L26.0188 8.67187L24.9791 8.61147C23.8404 8.54537 7.5861 8.56215 7.13226 8.62993ZM5.02225 16.0123C5.02225 19.8689 5.0517 22.0562 5.10329 22.0383C5.2522 21.987 11.9851 16.0904 11.9851 16.0114C11.9851 15.9334 5.25077 10.0388 5.10153 9.98618C5.0522 9.96873 5.02225 12.2483 5.02225 16.0123ZM24.3185 12.9469C22.4507 14.5818 20.9121 15.9502 20.8996 15.9878C20.8778 16.0531 27.6007 21.9803 27.7625 22.0383C27.8099 22.0554 27.8404 19.7017 27.8404 16.0192C27.8404 12.6934 27.8121 9.97267 27.7774 9.97335C27.7428 9.97393 26.1863 11.3121 24.3185 12.9469ZM11.356 19.424C10.1102 20.5122 8.58397 21.8414 7.96436 22.3776L6.83772 23.3526L11.6346 23.3743C14.2727 23.3862 18.5868 23.3862 21.2213 23.3743L26.0112 23.3526L22.8085 20.5491C21.047 19.0072 19.5138 17.6733 19.4013 17.5848L19.1967 17.424L18.2545 18.2518C16.9352 19.4106 16.8756 19.4518 16.5108 19.4518C16.3362 19.4518 16.1295 19.4273 16.0515 19.3973C15.9734 19.3674 15.414 18.9144 14.8085 18.3906C14.2029 17.8669 13.6879 17.44 13.6642 17.4419C13.6405 17.4438 12.6017 18.3358 11.356 19.424Z" fill="#B6C7AA"/>
</svg>
